<mxfile host="Electron" modified="2024-04-28T15:39:37.853Z" agent="Mozilla/5.0 (X11; Linux x86_64) AppleWebKit/537.36 (KHTML, like Gecko) draw.io/21.5.0 Chrome/112.0.5615.204 Electron/24.5.1 Safari/537.36" etag="ybzPUx5jOO1yWPGN3B5P" version="21.5.0" type="device">
  <diagram name="Page-1" id="01ag-G8sF0LvofnBw_4r">
    <mxGraphModel dx="520" dy="312" grid="1" gridSize="10" guides="1" tooltips="1" connect="1" arrows="1" fold="1" page="1" pageScale="1" pageWidth="850" pageHeight="1100" math="0" shadow="0">
      <root>
        <mxCell id="0" />
        <mxCell id="1" parent="0" />
        <mxCell id="_vHqCHT958gUbvMZFYxO-56" value="" style="ellipse;whiteSpace=wrap;html=1;rotation=-75;strokeColor=none;fillColor=#CCCCCC;" vertex="1" parent="1">
          <mxGeometry x="285" y="349.54" width="69.74" height="48.91" as="geometry" />
        </mxCell>
        <mxCell id="_vHqCHT958gUbvMZFYxO-55" value="" style="ellipse;whiteSpace=wrap;html=1;rotation=-25;strokeColor=none;fillColor=#CCCCCC;" vertex="1" parent="1">
          <mxGeometry x="294.82" y="341.55" width="69.74" height="48.91" as="geometry" />
        </mxCell>
        <mxCell id="_vHqCHT958gUbvMZFYxO-54" value="" style="ellipse;whiteSpace=wrap;html=1;rotation=45;strokeColor=none;fillColor=#CCCCCC;" vertex="1" parent="1">
          <mxGeometry x="279.45" y="333.89" width="72.5" height="53.5" as="geometry" />
        </mxCell>
        <mxCell id="_vHqCHT958gUbvMZFYxO-22" value="" style="ellipse;whiteSpace=wrap;html=1;aspect=fixed;fillColor=none;strokeWidth=2;" vertex="1" parent="1">
          <mxGeometry x="180" y="200" width="80" height="80" as="geometry" />
        </mxCell>
        <mxCell id="_vHqCHT958gUbvMZFYxO-23" value="" style="ellipse;whiteSpace=wrap;html=1;aspect=fixed;fillColor=none;strokeWidth=2;" vertex="1" parent="1">
          <mxGeometry x="280" y="200" width="80" height="80" as="geometry" />
        </mxCell>
        <mxCell id="_vHqCHT958gUbvMZFYxO-24" value="" style="ellipse;whiteSpace=wrap;html=1;aspect=fixed;fillColor=none;strokeWidth=2;" vertex="1" parent="1">
          <mxGeometry x="380" y="200" width="80" height="80" as="geometry" />
        </mxCell>
        <mxCell id="_vHqCHT958gUbvMZFYxO-25" value="" style="ellipse;whiteSpace=wrap;html=1;aspect=fixed;fillColor=none;strokeWidth=2;" vertex="1" parent="1">
          <mxGeometry x="265" y="330" width="80" height="80" as="geometry" />
        </mxCell>
        <mxCell id="_vHqCHT958gUbvMZFYxO-26" value="" style="ellipse;whiteSpace=wrap;html=1;aspect=fixed;fillColor=none;strokeWidth=2;" vertex="1" parent="1">
          <mxGeometry x="285" y="310" width="80" height="80" as="geometry" />
        </mxCell>
        <mxCell id="_vHqCHT958gUbvMZFYxO-27" value="" style="ellipse;whiteSpace=wrap;html=1;aspect=fixed;fillColor=none;strokeWidth=2;" vertex="1" parent="1">
          <mxGeometry x="295" y="340" width="80" height="80" as="geometry" />
        </mxCell>
        <mxCell id="_vHqCHT958gUbvMZFYxO-28" value="" style="ellipse;whiteSpace=wrap;html=1;aspect=fixed;fillColor=#67AB9F;strokeColor=none;" vertex="1" parent="1">
          <mxGeometry x="215" y="220" width="10" height="10" as="geometry" />
        </mxCell>
        <mxCell id="_vHqCHT958gUbvMZFYxO-31" value="" style="ellipse;whiteSpace=wrap;html=1;aspect=fixed;fillColor=#7EA6E0;strokeColor=none;" vertex="1" parent="1">
          <mxGeometry x="225" y="235" width="10" height="10" as="geometry" />
        </mxCell>
        <mxCell id="_vHqCHT958gUbvMZFYxO-33" value="" style="ellipse;whiteSpace=wrap;html=1;aspect=fixed;fillColor=#FFD966;strokeColor=none;" vertex="1" parent="1">
          <mxGeometry x="200" y="245" width="10" height="10" as="geometry" />
        </mxCell>
        <mxCell id="_vHqCHT958gUbvMZFYxO-34" value="" style="ellipse;whiteSpace=wrap;html=1;aspect=fixed;fillColor=#67AB9F;strokeColor=none;" vertex="1" parent="1">
          <mxGeometry x="317.5" y="215" width="10" height="10" as="geometry" />
        </mxCell>
        <mxCell id="_vHqCHT958gUbvMZFYxO-35" value="" style="ellipse;whiteSpace=wrap;html=1;aspect=fixed;fillColor=#7EA6E0;strokeColor=none;" vertex="1" parent="1">
          <mxGeometry x="327.5" y="230" width="10" height="10" as="geometry" />
        </mxCell>
        <mxCell id="_vHqCHT958gUbvMZFYxO-36" value="" style="ellipse;whiteSpace=wrap;html=1;aspect=fixed;fillColor=#EA6B66;strokeColor=none;" vertex="1" parent="1">
          <mxGeometry x="317.5" y="255" width="10" height="10" as="geometry" />
        </mxCell>
        <mxCell id="_vHqCHT958gUbvMZFYxO-37" value="" style="ellipse;whiteSpace=wrap;html=1;aspect=fixed;fillColor=#FFD966;strokeColor=none;" vertex="1" parent="1">
          <mxGeometry x="302.5" y="240" width="10" height="10" as="geometry" />
        </mxCell>
        <mxCell id="_vHqCHT958gUbvMZFYxO-38" value="" style="ellipse;whiteSpace=wrap;html=1;aspect=fixed;fillColor=#B5739D;strokeColor=none;" vertex="1" parent="1">
          <mxGeometry x="302.5" y="220" width="10" height="10" as="geometry" />
        </mxCell>
        <mxCell id="_vHqCHT958gUbvMZFYxO-41" value="" style="ellipse;whiteSpace=wrap;html=1;aspect=fixed;fillColor=#7EA6E0;strokeColor=none;" vertex="1" parent="1">
          <mxGeometry x="427.5" y="225" width="10" height="10" as="geometry" />
        </mxCell>
        <mxCell id="_vHqCHT958gUbvMZFYxO-42" value="" style="ellipse;whiteSpace=wrap;html=1;aspect=fixed;fillColor=#EA6B66;strokeColor=none;" vertex="1" parent="1">
          <mxGeometry x="417.5" y="250" width="10" height="10" as="geometry" />
        </mxCell>
        <mxCell id="_vHqCHT958gUbvMZFYxO-43" value="" style="ellipse;whiteSpace=wrap;html=1;aspect=fixed;fillColor=#FFD966;strokeColor=none;" vertex="1" parent="1">
          <mxGeometry x="402.5" y="235" width="10" height="10" as="geometry" />
        </mxCell>
        <mxCell id="_vHqCHT958gUbvMZFYxO-44" value="" style="ellipse;whiteSpace=wrap;html=1;aspect=fixed;fillColor=#7EA6E0;strokeColor=none;" vertex="1" parent="1">
          <mxGeometry x="322.5" y="350" width="10" height="10" as="geometry" />
        </mxCell>
        <mxCell id="_vHqCHT958gUbvMZFYxO-45" value="" style="ellipse;whiteSpace=wrap;html=1;aspect=fixed;fillColor=#EA6B66;strokeColor=none;" vertex="1" parent="1">
          <mxGeometry x="346.5" y="353" width="10" height="10" as="geometry" />
        </mxCell>
        <mxCell id="_vHqCHT958gUbvMZFYxO-46" value="" style="ellipse;whiteSpace=wrap;html=1;aspect=fixed;fillColor=#FFD966;strokeColor=none;" vertex="1" parent="1">
          <mxGeometry x="305" y="360" width="10" height="10" as="geometry" />
        </mxCell>
        <mxCell id="_vHqCHT958gUbvMZFYxO-48" value="" style="ellipse;whiteSpace=wrap;html=1;aspect=fixed;fillColor=#B5739D;strokeColor=none;" vertex="1" parent="1">
          <mxGeometry x="327.5" y="320" width="10" height="10" as="geometry" />
        </mxCell>
        <mxCell id="_vHqCHT958gUbvMZFYxO-49" value="" style="ellipse;whiteSpace=wrap;html=1;aspect=fixed;fillColor=#67AB9F;strokeColor=none;" vertex="1" parent="1">
          <mxGeometry x="295" y="340" width="10" height="10" as="geometry" />
        </mxCell>
        <mxCell id="_vHqCHT958gUbvMZFYxO-51" value="" style="ellipse;whiteSpace=wrap;html=1;aspect=fixed;fillColor=#CC915A;strokeColor=none;" vertex="1" parent="1">
          <mxGeometry x="407.5" y="215" width="10" height="10" as="geometry" />
        </mxCell>
        <mxCell id="_vHqCHT958gUbvMZFYxO-53" value="" style="ellipse;whiteSpace=wrap;html=1;aspect=fixed;fillColor=#CC915A;strokeColor=none;" vertex="1" parent="1">
          <mxGeometry x="346.5" y="390" width="10" height="10" as="geometry" />
        </mxCell>
        <mxCell id="_vHqCHT958gUbvMZFYxO-63" value="" style="endArrow=none;dashed=1;html=1;rounded=0;strokeWidth=2;" edge="1" parent="1">
          <mxGeometry width="50" height="50" relative="1" as="geometry">
            <mxPoint x="190" y="296" as="sourcePoint" />
            <mxPoint x="450" y="296" as="targetPoint" />
          </mxGeometry>
        </mxCell>
      </root>
    </mxGraphModel>
  </diagram>
</mxfile>
